<svg viewBox="0 0 108.92 108.89" xmlns="http://www.w3.org/2000/svg" xmlns:xlink="http://www.w3.org/1999/xlink"><radialGradient id="a" cx="-874.11" cy="-226.33" gradientTransform="matrix(0 -1.98 -1.84 0 -388.39 -1615.19)" gradientUnits="userSpaceOnUse" r="54.45"><stop offset="0" stop-color="#fedd57"/><stop offset=".1" stop-color="#fedd57"/><stop offset=".5" stop-color="#f15843"/><stop offset="1" stop-color="#bb469a"/></radialGradient><radialGradient id="b" cx="-441.83" cy="652.71" gradientTransform="matrix(.17 .87 3.58 -.72 -2279.26 859.78)" gradientUnits="userSpaceOnUse" r="54.45"><stop offset="0" stop-color="#4270b7"/><stop offset=".13" stop-color="#4270b7"/><stop offset="1" stop-color="#5e53a3" stop-opacity="0"/></radialGradient><path d="m54.48 0c-22.74 0-29.39 0-30.68.13a26.92 26.92 0 0 0 -10.73 2.7 21.69 21.69 0 0 0 -6.26 4.58 23.37 23.37 0 0 0 -6.31 13.24c-.37 2.55-.5 3.07-.5 16.08v17.7c0 22.71 0 29.36.14 30.65a27.39 27.39 0 0 0 2.59 10.52 23 23 0 0 0 14.87 12.15 39.3 39.3 0 0 0 7.91 1c1.35.06 15.1.1 28.85.1s27.51 0 28.83-.08a37.08 37.08 0 0 0 8.19-1.07 22.82 22.82 0 0 0 14.87-12.17 26.92 26.92 0 0 0 2.57-10.32c.07-.94.1-15.9.1-30.84s0-29.87-.1-30.81a26.85 26.85 0 0 0 -2.62-10.42 21.63 21.63 0 0 0 -4.67-6.39 23.5 23.5 0 0 0 -13.26-6.25c-2.54-.37-3.05-.5-16.06-.5z" fill="url(#a)"/><path d="m54.48 0c-22.74 0-29.39 0-30.68.13a26.92 26.92 0 0 0 -10.73 2.7 21.69 21.69 0 0 0 -6.26 4.58 23.37 23.37 0 0 0 -6.31 13.24c-.37 2.55-.5 3.07-.5 16.08v17.7c0 22.71 0 29.36.14 30.65a27.39 27.39 0 0 0 2.59 10.52 23 23 0 0 0 14.87 12.15 39.3 39.3 0 0 0 7.91 1c1.35.06 15.1.1 28.85.1s27.51 0 28.83-.08a37.08 37.08 0 0 0 8.19-1.07 22.82 22.82 0 0 0 14.87-12.17 26.92 26.92 0 0 0 2.57-10.32c.07-.94.1-15.9.1-30.84s0-29.87-.1-30.81a26.85 26.85 0 0 0 -2.62-10.42 21.63 21.63 0 0 0 -4.67-6.39 23.5 23.5 0 0 0 -13.26-6.25c-2.54-.37-3.05-.5-16.06-.5z" fill="url(#b)"/><path d="m54.45 14.24c-10.92 0-12.29 0-16.58.24a29.74 29.74 0 0 0 -9.76 1.87 20.59 20.59 0 0 0 -11.76 11.76 29.49 29.49 0 0 0 -1.87 9.76c-.19 4.29-.24 5.66-.24 16.58s0 12.29.24 16.58a29.74 29.74 0 0 0 1.87 9.76 20.59 20.59 0 0 0 11.76 11.76 29.49 29.49 0 0 0 9.76 1.87c4.29.19 5.66.24 16.58.24s12.29 0 16.58-.24a29.49 29.49 0 0 0 9.76-1.87 20.59 20.59 0 0 0 11.76-11.76 29.74 29.74 0 0 0 1.87-9.79c.19-4.29.24-5.66.24-16.58s0-12.29-.24-16.58a29.74 29.74 0 0 0 -1.87-9.76 20.59 20.59 0 0 0 -11.76-11.73 29.87 29.87 0 0 0 -9.79-1.87c-4.29-.19-5.65-.24-16.58-.24zm-3.6 7.25h3.6c10.74 0 12 0 16.25.23a22.38 22.38 0 0 1 7.47 1.38 13.35 13.35 0 0 1 7.63 7.63 22.38 22.38 0 0 1 1.38 7.47c.2 4.24.24 5.51.24 16.24s0 12-.24 16.25a22.3 22.3 0 0 1 -1.38 7.46 13.35 13.35 0 0 1 -7.63 7.63 22.38 22.38 0 0 1 -7.47 1.38c-4.24.19-5.51.24-16.25.24s-12-.05-16.24-.24a22.38 22.38 0 0 1 -7.47-1.38 12.34 12.34 0 0 1 -4.62-3 12.5 12.5 0 0 1 -3-4.62 22.3 22.3 0 0 1 -1.39-7.47c-.19-4.24-.23-5.51-.23-16.25s0-12 .23-16.24a22.3 22.3 0 0 1 1.39-7.47 12.5 12.5 0 0 1 3-4.62 12.34 12.34 0 0 1 4.62-3 22.3 22.3 0 0 1 7.47-1.39c3.71-.16 5.14-.21 12.64-.22zm25.07 6.67a4.83 4.83 0 1 0 4.82 4.84 4.83 4.83 0 0 0 -4.82-4.83zm-21.47 5.64a20.65 20.65 0 1 0 20.65 20.65 20.66 20.66 0 0 0 -20.65-20.65zm0 7.25a13.4 13.4 0 1 1 -13.4 13.4 13.4 13.4 0 0 1 13.4-13.4z" fill="#fff"/></svg>