<svg viewBox="0 0 415.2 67.54" xmlns="http://www.w3.org/2000/svg"><path d="m11.7 6.34h14c6.84 0 11.07 1.08 14.58 3.6a15.17 15.17 0 0 1 6.12 12.69c0 12.6-8.55 20.79-21.87 20.79h-8.96l-4.41 23h-11.16zm5.85 27h6c7.47 0 11.7-3.33 11.7-9.45 0-5-3.24-7.47-9.81-7.47h-4.65z" fill="#f6921e"/><path d="m131.22 66.37h-14.31l-2.43-60h11.43l.72 46.8 20.88-46.8h13.59l.81 47.63 20.34-47.66h11.61l-26.86 60.03h-14.18l-1.35-45.63z" fill="#f6921e"/><path d="m200.43 6.34h30.51l-1.89 10.08h-19.53l-2.61 13.86h20l-1.91 10.08h-20.07l-3.15 15.93h20.34l-2 10.08h-31.39z" fill="#f6921e"/><path d="m240.93 6.34h15.75c7.74 0 11.88.9 15.39 3.42a14.91 14.91 0 0 1 4.93 5.67 19.54 19.54 0 0 1 1.8 8.28 21.4 21.4 0 0 1 -4.5 13c-3.69 4.59-7.92 6.48-16 7.11l13.5 22.5h-12.6l-13.86-25.6-5 25.65h-11.11zm5.58 28.53h7.29c4.86 0 7.83-.72 10-2.43a10.8 10.8 0 0 0 3.87-8.19c0-5-3.69-7.83-10.44-7.83h-7.23z" fill="#f6921e"/><path d="m337 24.34c-1-3.24-2.16-4.5-4.94-6.3a18.35 18.35 0 0 0 -9.63-2.7c-13.14 0-21.33 12.33-21.33 24.48 0 10 5.85 17.19 16.2 17.19 7.92 0 14-4 16.56-11.61h-22.55l2.07-10.08h34.46a60.87 60.87 0 0 1 -3 12.51c-4.5 12.24-14.67 19.71-27.81 19.71-16.03 0-27.03-11.88-27.03-27.72a37.25 37.25 0 0 1 8.28-23.31c6.21-7.65 13.95-11.34 23.85-11.34 7.64 0 15.21 2.34 20.78 7.74 3.69 3.6 4.68 6.48 5.67 11.43z" fill="#fff"/><path d="m65.22 53.45a17.69 17.69 0 0 1 -6.82-14.35c0-13.32 9.81-23.76 22.41-23.76a22.66 22.66 0 0 1 4.34.42l5-9.43a34.57 34.57 0 0 0 -8.6-1.07c-19.8 0-34.2 14.49-34.2 34.2a26.83 26.83 0 0 0 12.86 23.45z" fill="#f6921e"/><path d="m100 10.94-6.44 8.68a17.44 17.44 0 0 1 6.44 13.81c0 13.68-9.63 23.94-22.59 23.94a20.37 20.37 0 0 1 -10-2.5l-6.34 8.54a32.89 32.89 0 0 0 16.23 4c19.17 0 33.75-14.76 33.75-34.11a27.08 27.08 0 0 0 -11.05-22.36z" fill="#f6921e"/><path d="m407.14 13.45-6.67 9a17.73 17.73 0 0 1 3.66 11c0 13.68-9.63 23.94-22.59 23.94a21.38 21.38 0 0 1 -6.31-.93l-6.44 8.67a34 34 0 0 0 12.66 2.34c19.17 0 33.75-14.76 33.75-34.11a27.34 27.34 0 0 0 -8.06-19.91z" fill="#fff"/><path d="m374.2 51.38 35-51.38-32.44 53.13z" fill="#f6921e"/><circle cx="383.92" cy="39.09" fill="#f6921e" r="2.97"/><g fill="#fff"><path d="m362.55 39.1a25.09 25.09 0 0 1 3.45-12.91l-8.6-6.72a34.93 34.93 0 0 0 -6 20 26.85 26.85 0 0 0 16.3 25.18l4.89-9.24a17.55 17.55 0 0 1 -10.04-16.31z"/><path d="m364.82 11.82a31.69 31.69 0 0 0 -6.82 6.82l8.56 6.7a22.5 22.5 0 0 1 4.12-4.68z" opacity=".8"/><path d="m374.53 6.94a33.31 33.31 0 0 0 -8.89 4.31l5.82 8.75a22.21 22.21 0 0 1 5.73-3.25z" opacity=".6"/><path d="m387.33 5.3-.91 10.11a21.3 21.3 0 0 1 6.58 1.43l4.93-9.33a32.67 32.67 0 0 0 -10.6-2.21z" opacity=".2"/><path d="m385.42 15.36.91-10.08h-.65a37.33 37.33 0 0 0 -10.19 1.4l2.65 9.78a21.56 21.56 0 0 1 6.82-1.1z" opacity=".4"/></g></svg>