<?xml version="1.0" encoding="UTF-8"?>
<svg id="Layer_1" data-name="Layer 1" xmlns="http://www.w3.org/2000/svg" viewBox="0 0 29.35 8">
  <defs>
    <style>
      .cls-1 {
        fill: #fff;
        stroke-width: 0px;
      }
    </style>
  </defs>
  <path class="cls-1" d="M0,0v8h3.65V0H0ZM.58,4l1.47-2.19v2.54s-.41-.61-.41-.61l-.62.91-.44-.65ZM2.7,7.15l-1.51-2.25.45-.67,1.06,1.58.37-.55v1.34s-.37.55-.37.55ZM3.07,4.76l-.37.55-.37-.55V1.4s.37-.55.37-.55l.37.55v3.37Z"/>
  <path class="cls-1" d="M9.77,1.91v-.37h-3.58v2.08h3.7s0,1.53,0,1.53h-3.7v2.84h-1.66V0s6.85,0,6.85,0v1.91h-1.61ZM12.18.76l2.38,3.23-2.38,3.23v.76h1.97v-.63s2.45-3.37,2.45-3.37l-2.45-3.37V0h-1.97v.76ZM21.16,0h-1.97v.62l-2.45,3.37,2.45,3.37v.63h1.97v-.76l-2.38-3.23,2.38-3.23V0ZM29.35,0h-6.26S21.95,0,21.95,0v7.99s1.66,0,1.66,0V1.53h4.07v.63l-2.24,2.34,1.99,2.72v.77s1.92,0,1.92,0v-.96s-1.76-2.4-1.76-2.4l1.76-1.85V0Z"/>
</svg>